<svg xmlns="http://www.w3.org/2000/svg" xmlns:svg="http://www.w3.org/2000/svg" id="svg8" width="120" height="120" version="1.1" viewBox="0 0 31.75 31.75"><metadata id="metadata5"/><g id="layer1"><path id="path853" style="fill:#fff;fill-rule:evenodd;stroke:none;stroke-width:.15913px;stroke-linecap:butt;stroke-linejoin:miter;stroke-opacity:1" d="m 15.912207,8.28089 c -0.195096,0 -1.115834,1.6350003 -2.158524,3.608048 h 4.292244 C 17.016939,9.9158523 16.107306,8.28089 15.912207,8.28089 Z m -2.967261,5.153173 c -0.315755,0.611655 -0.62749,1.222985 -0.923457,1.806608 h 7.732861 c -0.291935,-0.583616 -0.599556,-1.194957 -0.911056,-1.806608 z m -1.702221,3.351734 c -0.552947,1.103335 -0.956147,1.919679 -1.01906,2.04742 H 8.4981896 c -0.3296656,0 -0.5947958,0.265647 -0.5947958,0.595312 v 0.270785 c 0,0.329665 0.2651302,0.594795 0.5947958,0.594795 H 23.251811 c 0.329666,0 0.594795,-0.26513 0.594795,-0.594795 v -0.270785 c 0,-0.329665 -0.265129,-0.595312 -0.594795,-0.595312 h -1.724443 c -0.06203,-0.127755 -0.459747,-0.944093 -1.005107,-2.04742 z"/></g></svg>